{
  "source": "C:\\Users\\Peter\\Desktop\\stuff\\MIUN\\quantitative_research\\video_compression\\videos\\BVI-HD\\BVI-HD_CDVL_videos\\ORIG\\TreeTrunk_1920x1080_50fps.mp4",
  "output": "C:\\Users\\Peter\\Desktop\\stuff\\MIUN\\quantitative_research\\video_compression\\compressed_videos\\BVI-HD\\vp9\\8\\TreeTrunk_1920x1080_50fps_vp9.webm",
  "codec": "vp9",
  "ok": "Input #0, mov,mp4,m4a,3gp,3g2,mj2, from 'C:\\Users\\Peter\\Desktop\\stuff\\MIUN\\quantitative_research\\video_compression\\videos\\BVI-HD\\BVI-HD_CDVL_videos\\ORIG\\TreeTrunk_1920x1080_50fps.mp4':\n  Metadata:\n    major_brand     : isom\n    minor_version   : 512\n    compatible_brands: isomiso2avc1mp41\n    encoder         : Lavf54.28.101\n  Duration: 00:00:05.00, start: 0.000000, bitrate: 622415 kb/s\n  Stream #0:0[0x1](und): Video: h264 (High 4:4:4 Predictive) (avc1 / 0x31637661), yuv420p(progressive), 1920x1080, 622410 kb/s, 50 fps, 50 tbr, 50 tbn (default)\n    Metadata:\n      handler_name    : VideoHandler\n      vendor_id       : [0][0][0][0]\n[out#0/webm @ 0000021edf22f040] Codec AVOption b:a (set bitrate (in bits/s)) has not been used for any stream. The most likely reason is either wrong type (e.g. a video option with no video streams) or that it is a private option of some decoder which was not actually used for any stream.\nStream mapping:\n  Stream #0:0 -> #0:0 (h264 (native) -> vp9 (libvpx-vp9))\nPress [q] to stop, [?] for help\n[libvpx-vp9 @ 0000021edf030a80] v1.15.2-100-g40561f514\nOutput #0, webm, to 'C:\\Users\\Peter\\Desktop\\stuff\\MIUN\\quantitative_research\\video_compression\\compressed_videos\\BVI-HD\\vp9\\8\\TreeTrunk_1920x1080_50fps_vp9.webm':\n  Metadata:\n    major_brand     : isom\n    minor_version   : 512\n    compatible_brands: isomiso2avc1mp41\n    encoder         : Lavf62.3.100\n  Stream #0:0(und): Video: vp9, yuv420p(tv, progressive), 1920x1080, q=2-31, 8000 kb/s, 50 fps, 1k tbn (default)\n    Metadata:\n      encoder         : Lavc62.11.100 libvpx-vp9\n      handler_name    : VideoHandler\n      vendor_id       : [0][0][0][0]\n    Side data:\n      cpb: bitrate max/min/avg: 0/0/0 buffer size: 8000000 vbv_delay: N/A\nframe=    0 fps=0.0 q=0.0 size=       0KiB time=N/A bitrate=N/A speed=N/A elapsed=0:00:00.52    \nframe=    0 fps=0.0 q=0.0 size=       0KiB time=N/A bitrate=N/A speed=N/A elapsed=0:00:01.09    \nframe=    4 fps=2.5 q=41.0 size=       1KiB time=00:00:00.08 bitrate=  63.4kbits/s speed=0.0497x elapsed=0:00:01.60    \nframe=    8 fps=3.7 q=30.0 size=       1KiB time=00:00:00.16 bitrate=  31.7kbits/s speed=0.0749x elapsed=0:00:02.13    \nframe=   11 fps=4.1 q=30.0 size=       1KiB time=00:00:00.22 bitrate=  23.1kbits/s speed=0.0828x elapsed=0:00:02.65    \nframe=   13 fps=4.1 q=30.0 size=       1KiB time=00:00:00.26 bitrate=  19.5kbits/s speed=0.0814x elapsed=0:00:03.19    \nframe=   16 fps=4.3 q=28.0 size=       1KiB time=00:00:00.32 bitrate=  15.8kbits/s speed=0.0866x elapsed=0:00:03.69    \nframe=   19 fps=4.5 q=35.0 size=       1KiB time=00:00:00.38 bitrate=  13.3kbits/s speed=0.0902x elapsed=0:00:04.21    \nframe=   21 fps=4.4 q=40.0 size=       1KiB time=00:00:00.42 bitrate=  12.1kbits/s speed=0.0882x elapsed=0:00:04.76    \nframe=   22 fps=4.1 q=27.0 size=       1KiB time=00:00:00.44 bitrate=  11.5kbits/s speed=0.0826x elapsed=0:00:05.32    \nframe=   25 fps=4.2 q=28.0 size=       1KiB time=00:00:00.50 bitrate=  10.1kbits/s speed=0.0849x elapsed=0:00:05.88    \nframe=   27 fps=4.2 q=31.0 size=       1KiB time=00:00:00.54 bitrate=   9.4kbits/s speed=0.0835x elapsed=0:00:06.46    \nframe=   28 fps=4.0 q=26.0 size=       1KiB time=00:00:00.56 bitrate=   9.1kbits/s speed=0.0795x elapsed=0:00:07.04    \nframe=   29 fps=3.8 q=41.0 size=       1KiB time=00:00:00.58 bitrate=   8.7kbits/s speed=0.0761x elapsed=0:00:07.61    \nframe=   31 fps=3.8 q=43.0 size=       1KiB time=00:00:00.62 bitrate=   8.2kbits/s speed=0.0756x elapsed=0:00:08.20    \nframe=   33 fps=3.7 q=34.0 size=       1KiB time=00:00:00.66 bitrate=   7.7kbits/s speed=0.0745x elapsed=0:00:08.85    \nframe=   34 fps=3.6 q=25.0 size=       1KiB time=00:00:00.68 bitrate=   7.5kbits/s speed=0.072x elapsed=0:00:09.44    \nframe=   36 fps=3.6 q=40.0 size=       1KiB time=00:00:00.72 bitrate=   7.0kbits/s speed=0.0717x elapsed=0:00:10.03    \nframe=   38 fps=3.6 q=36.0 size=       1KiB time=00:00:00.76 bitrate=   6.7kbits/s speed=0.0716x elapsed=0:00:10.61    \nframe=   41 fps=3.7 q=27.0 size=       1KiB time=00:00:00.82 bitrate=   6.2kbits/s speed=0.0734x elapsed=0:00:11.16    \nframe=   44 fps=3.8 q=37.0 size=       1KiB time=00:00:00.88 bitrate=   5.8kbits/s speed=0.0751x elapsed=0:00:11.71    \nframe=   46 fps=3.7 q=27.0 size=       1KiB time=00:00:00.92 bitrate=   5.5kbits/s speed=0.0746x elapsed=0:00:12.32    \nframe=   49 fps=3.8 q=36.0 size=       1KiB time=00:00:00.98 bitrate=   5.2kbits/s speed=0.0762x elapsed=0:00:12.86    \nframe=   51 fps=3.8 q=40.0 size=       1KiB time=00:00:01.02 bitrate=   5.0kbits/s speed=0.076x elapsed=0:00:13.41    \nframe=   53 fps=3.8 q=35.0 size=       1KiB time=00:00:01.06 bitrate=   4.8kbits/s speed=0.0761x elapsed=0:00:13.93    \nframe=   55 fps=3.8 q=41.0 size=       1KiB time=00:00:01.10 bitrate=   4.6kbits/s speed=0.0757x elapsed=0:00:14.53    \nframe=   57 fps=3.8 q=28.0 size=       1KiB time=00:00:01.14 bitrate=   4.4kbits/s speed=0.0755x elapsed=0:00:15.09    \nframe=   59 fps=3.8 q=40.0 size=       1KiB time=00:00:01.18 bitrate=   4.3kbits/s speed=0.0751x elapsed=0:00:15.70    \nframe=   61 fps=3.7 q=37.0 size=       1KiB time=00:00:01.22 bitrate=   4.2kbits/s speed=0.0748x elapsed=0:00:16.31    \nframe=   63 fps=3.7 q=39.0 size=       1KiB time=00:00:01.26 bitrate=   4.0kbits/s speed=0.0745x elapsed=0:00:16.91    \nframe=   65 fps=3.7 q=38.0 size=       1KiB time=00:00:01.30 bitrate=   3.9kbits/s speed=0.0742x elapsed=0:00:17.52    \nframe=   66 fps=3.6 q=27.0 size=       1KiB time=00:00:01.32 bitrate=   3.8kbits/s speed=0.0729x elapsed=0:00:18.11    \nframe=   68 fps=3.6 q=37.0 size=       1KiB time=00:00:01.36 bitrate=   3.7kbits/s speed=0.0729x elapsed=0:00:18.66    \nframe=   70 fps=3.6 q=27.0 size=       1KiB time=00:00:01.40 bitrate=   3.6kbits/s speed=0.0729x elapsed=0:00:19.19    \nframe=   71 fps=3.6 q=30.0 size=       1KiB time=00:00:01.42 bitrate=   3.6kbits/s speed=0.0718x elapsed=0:00:19.78    \nframe=   74 fps=3.6 q=31.0 size=       1KiB time=00:00:01.48 bitrate=   3.4kbits/s speed=0.0727x elapsed=0:00:20.36    \nframe=   76 fps=3.6 q=37.0 size=       1KiB time=00:00:01.52 bitrate=   3.3kbits/s speed=0.0727x elapsed=0:00:20.91    \nframe=   77 fps=3.6 q=26.0 size=       1KiB time=00:00:01.54 bitrate=   3.3kbits/s speed=0.0714x elapsed=0:00:21.56    \nframe=   79 fps=3.6 q=44.0 size=       1KiB time=00:00:01.58 bitrate=   3.2kbits/s speed=0.0712x elapsed=0:00:22.18    \nframe=   80 fps=3.5 q=28.0 size=       1KiB time=00:00:01.60 bitrate=   3.2kbits/s speed=0.0703x elapsed=0:00:22.75    \nframe=   82 fps=3.5 q=38.0 size=       1KiB time=00:00:01.64 bitrate=   3.1kbits/s speed=0.0705x elapsed=0:00:23.26    \nframe=   84 fps=3.5 q=39.0 size=       1KiB time=00:00:01.68 bitrate=   3.0kbits/s speed=0.0703x elapsed=0:00:23.89    \nframe=   86 fps=3.5 q=39.0 size=       1KiB time=00:00:01.72 bitrate=   2.9kbits/s speed=0.0703x elapsed=0:00:24.47    \nframe=   88 fps=3.5 q=37.0 size=       1KiB time=00:00:01.76 bitrate=   2.9kbits/s speed=0.0702x elapsed=0:00:25.07    \nframe=   89 fps=3.5 q=28.0 size=       1KiB time=00:00:01.78 bitrate=   2.8kbits/s speed=0.0693x elapsed=0:00:25.69    \nframe=   92 fps=3.5 q=28.0 size=       1KiB time=00:00:01.84 bitrate=   2.8kbits/s speed=0.0702x elapsed=0:00:26.21    \nframe=   93 fps=3.5 q=32.0 size=       1KiB time=00:00:01.86 bitrate=   2.7kbits/s speed=0.0694x elapsed=0:00:26.79    \nframe=   95 fps=3.5 q=46.0 size=       1KiB time=00:00:01.90 bitrate=   2.7kbits/s speed=0.0693x elapsed=0:00:27.41    \nframe=   97 fps=3.5 q=31.0 size=       1KiB time=00:00:01.94 bitrate=   2.6kbits/s speed=0.0693x elapsed=0:00:28.00    \nframe=   99 fps=3.5 q=46.0 size=       1KiB time=00:00:01.98 bitrate=   2.6kbits/s speed=0.0693x elapsed=0:00:28.58    \nframe=  100 fps=3.4 q=20.0 size=       1KiB time=00:00:02.00 bitrate=   2.5kbits/s speed=0.0685x elapsed=0:00:29.21    \nframe=  102 fps=3.4 q=27.0 size=       1KiB time=00:00:02.04 bitrate=   2.5kbits/s speed=0.0686x elapsed=0:00:29.73    \nframe=  103 fps=3.4 q=33.0 size=       1KiB time=00:00:02.06 bitrate=   2.5kbits/s speed=0.068x elapsed=0:00:30.28    \nframe=  105 fps=3.4 q=45.0 size=       1KiB time=00:00:02.10 bitrate=   2.4kbits/s speed=0.068x elapsed=0:00:30.87    \nframe=  107 fps=3.4 q=33.0 size=       1KiB time=00:00:02.14 bitrate=   2.4kbits/s speed=0.0681x elapsed=0:00:31.42    \nframe=  109 fps=3.4 q=45.0 size=       1KiB time=00:00:02.18 bitrate=   2.3kbits/s speed=0.0681x elapsed=0:00:31.99    \nframe=  110 fps=3.4 q=28.0 size=       1KiB time=00:00:02.20 bitrate=   2.3kbits/s speed=0.0675x elapsed=0:00:32.59    \nframe=  112 fps=3.4 q=31.0 size=       1KiB time=00:00:02.24 bitrate=   2.3kbits/s speed=0.0675x elapsed=0:00:33.16    \nframe=  114 fps=3.4 q=36.0 size=       1KiB time=00:00:02.28 bitrate=   2.2kbits/s speed=0.0676x elapsed=0:00:33.70    \nframe=  116 fps=3.4 q=43.0 size=       1KiB time=00:00:02.32 bitrate=   2.2kbits/s speed=0.0676x elapsed=0:00:34.29    \nframe=  118 fps=3.4 q=32.0 size=       1KiB time=00:00:02.36 bitrate=   2.1kbits/s speed=0.0676x elapsed=0:00:34.90    \nframe=  119 fps=3.4 q=26.0 size=       1KiB time=00:00:02.38 bitrate=   2.1kbits/s speed=0.0671x elapsed=0:00:35.45    \nframe=  122 fps=3.4 q=28.0 size=       1KiB time=00:00:02.44 bitrate=   2.1kbits/s speed=0.0677x elapsed=0:00:36.05    \nframe=  124 fps=3.4 q=35.0 size=       1KiB time=00:00:02.48 bitrate=   2.0kbits/s speed=0.0677x elapsed=0:00:36.63    \nframe=  127 fps=3.4 q=30.0 size=       1KiB time=00:00:02.54 bitrate=   2.0kbits/s speed=0.0683x elapsed=0:00:37.20    \nframe=  128 fps=3.4 q=28.0 size=       1KiB time=00:00:02.56 bitrate=   2.0kbits/s speed=0.0678x elapsed=0:00:37.76    \nframe=  130 fps=3.4 q=32.0 size=    4864KiB time=00:00:02.60 bitrate=15325.3kbits/s speed=0.0678x elapsed=0:00:38.32    \nframe=  132 fps=3.4 q=34.0 size=    4864KiB time=00:00:02.64 bitrate=15093.1kbits/s speed=0.0679x elapsed=0:00:38.90    \nframe=  135 fps=3.4 q=32.0 size=    4864KiB time=00:00:02.70 bitrate=14757.7kbits/s speed=0.0684x elapsed=0:00:39.45    \nframe=  137 fps=3.4 q=40.0 size=    4864KiB time=00:00:02.74 bitrate=14542.3kbits/s speed=0.0685x elapsed=0:00:40.00    \nframe=  140 fps=3.5 q=29.0 size=    4864KiB time=00:00:02.80 bitrate=14230.7kbits/s speed=0.0691x elapsed=0:00:40.52    \nframe=  142 fps=3.5 q=42.0 size=    4864KiB time=00:00:02.84 bitrate=14030.2kbits/s speed=0.0691x elapsed=0:00:41.09    \nframe=  144 fps=3.5 q=35.0 size=    4864KiB time=00:00:02.88 bitrate=13835.4kbits/s speed=0.0691x elapsed=0:00:41.66    \nframe=  147 fps=3.5 q=28.0 size=    4864KiB time=00:00:02.94 bitrate=13553.0kbits/s speed=0.0696x elapsed=0:00:42.21    \nframe=  148 fps=3.5 q=34.0 size=    4864KiB time=00:00:02.96 bitrate=13461.4kbits/s speed=0.0692x elapsed=0:00:42.79    \nframe=  150 fps=3.5 q=41.0 size=    4864KiB time=00:00:03.00 bitrate=13282.0kbits/s speed=0.0691x elapsed=0:00:43.42    \nframe=  150 fps=3.4 q=41.0 size=    4864KiB time=00:00:03.00 bitrate=13282.0kbits/s speed=0.0682x elapsed=0:00:43.96    \nframe=  152 fps=3.4 q=27.0 size=    4864KiB time=00:00:03.04 bitrate=13107.2kbits/s speed=0.0683x elapsed=0:00:44.52    \nframe=  154 fps=3.4 q=42.0 size=    4864KiB time=00:00:03.08 bitrate=12937.0kbits/s speed=0.0682x elapsed=0:00:45.15    \nframe=  156 fps=3.4 q=33.0 size=    4864KiB time=00:00:03.10 bitrate=12853.5kbits/s speed=0.0678x elapsed=0:00:45.75    \nframe=  158 fps=3.4 q=44.0 size=    4864KiB time=00:00:03.16 bitrate=12609.5kbits/s speed=0.0682x elapsed=0:00:46.31    \nframe=  160 fps=3.4 q=32.0 size=    4864KiB time=00:00:03.20 bitrate=12451.8kbits/s speed=0.0683x elapsed=0:00:46.86    \nframe=  161 fps=3.4 q=26.0 size=    4864KiB time=00:00:03.22 bitrate=12374.5kbits/s speed=0.0679x elapsed=0:00:47.41    \nframe=  164 fps=3.4 q=28.0 size=    4864KiB time=00:00:03.28 bitrate=12148.1kbits/s speed=0.0684x elapsed=0:00:47.95    \nframe=  166 fps=3.4 q=38.0 size=    4864KiB time=00:00:03.32 bitrate=12001.8kbits/s speed=0.0684x elapsed=0:00:48.52    \nframe=  168 fps=3.4 q=37.0 size=    4864KiB time=00:00:03.36 bitrate=11858.9kbits/s speed=0.0685x elapsed=0:00:49.06    \nframe=  171 fps=3.4 q=27.0 size=    4864KiB time=00:00:03.42 bitrate=11650.8kbits/s speed=0.069x elapsed=0:00:49.59    \nframe=  173 fps=3.5 q=27.0 size=    4864KiB time=00:00:03.46 bitrate=11516.2kbits/s speed=0.0691x elapsed=0:00:50.10    \nframe=  175 fps=3.5 q=42.0 size=    4864KiB time=00:00:03.50 bitrate=11384.5kbits/s speed=0.0691x elapsed=0:00:50.64    \nframe=  177 fps=3.5 q=34.0 size=    4864KiB time=00:00:03.54 bitrate=11255.9kbits/s speed=0.0692x elapsed=0:00:51.19    \nframe=  179 fps=3.5 q=41.0 size=    4864KiB time=00:00:03.58 bitrate=11130.1kbits/s speed=0.0692x elapsed=0:00:51.76    \nframe=  181 fps=3.5 q=36.0 size=    4864KiB time=00:00:03.62 bitrate=11007.2kbits/s speed=0.0691x elapsed=0:00:52.35    \nframe=  183 fps=3.5 q=41.0 size=    4864KiB time=00:00:03.66 bitrate=10886.9kbits/s speed=0.0692x elapsed=0:00:52.90    \nframe=  185 fps=3.5 q=27.0 size=    4864KiB time=00:00:03.70 bitrate=10769.2kbits/s speed=0.0692x elapsed=0:00:53.45    \nframe=  187 fps=3.5 q=29.0 size=    4864KiB time=00:00:03.72 bitrate=10711.3kbits/s speed=0.0689x elapsed=0:00:54.00    \nframe=  188 fps=3.4 q=29.0 size=    4864KiB time=00:00:03.76 bitrate=10597.3kbits/s speed=0.0689x elapsed=0:00:54.59    \nframe=  190 fps=3.4 q=28.0 size=    4864KiB time=00:00:03.80 bitrate=10485.8kbits/s speed=0.0689x elapsed=0:00:55.17    \nframe=  191 fps=3.4 q=36.0 size=    4864KiB time=00:00:03.82 bitrate=10430.9kbits/s speed=0.0685x elapsed=0:00:55.75    \nframe=  194 fps=3.4 q=29.0 size=    4864KiB time=00:00:03.88 bitrate=10269.6kbits/s speed=0.0689x elapsed=0:00:56.28    \nframe=  195 fps=3.4 q=19.0 size=    4864KiB time=00:00:03.90 bitrate=10216.9kbits/s speed=0.0686x elapsed=0:00:56.84    \nframe=  198 fps=3.4 q=45.0 size=    4864KiB time=00:00:03.94 bitrate=10113.2kbits/s speed=0.0686x elapsed=0:00:57.42    \nframe=  199 fps=3.4 q=32.0 size=    4864KiB time=00:00:03.98 bitrate=10011.5kbits/s speed=0.0686x elapsed=0:00:57.97    \nframe=  201 fps=3.4 q=41.0 size=    4864KiB time=00:00:04.02 bitrate=9911.9kbits/s speed=0.0687x elapsed=0:00:58.50    \nframe=  205 fps=3.5 q=38.0 size=    4864KiB time=00:00:04.10 bitrate=9718.5kbits/s speed=0.0694x elapsed=0:00:59.04    \nframe=  206 fps=3.5 q=30.0 size=    4864KiB time=00:00:04.12 bitrate=9671.3kbits/s speed=0.0692x elapsed=0:00:59.56    \nframe=  209 fps=3.5 q=30.0 size=    4864KiB time=00:00:04.16 bitrate=9578.3kbits/s speed=0.0692x elapsed=0:01:00.09    \nframe=  212 fps=3.5 q=39.0 size=    4864KiB time=00:00:04.22 bitrate=9442.2kbits/s speed=0.0696x elapsed=0:01:00.65    \nframe=  213 fps=3.5 q=29.0 size=    4864KiB time=00:00:04.26 bitrate=9353.5kbits/s speed=0.0696x elapsed=0:01:01.20    \nframe=  216 fps=3.5 q=43.0 size=    4864KiB time=00:00:04.32 bitrate=9223.6kbits/s speed=0.07x elapsed=0:01:01.74    \nframe=  217 fps=3.5 q=26.0 size=    4864KiB time=00:00:04.34 bitrate=9181.1kbits/s speed=0.0696x elapsed=0:01:02.31    \nframe=  219 fps=3.5 q=30.0 size=    4864KiB time=00:00:04.38 bitrate=9097.2kbits/s speed=0.0697x elapsed=0:01:02.87    \nframe=  221 fps=3.5 q=31.0 size=    4864KiB time=00:00:04.42 bitrate=9014.9kbits/s speed=0.0697x elapsed=0:01:03.45    \nframe=  223 fps=3.5 q=31.0 size=    4864KiB time=00:00:04.46 bitrate=8934.1kbits/s speed=0.0697x elapsed=0:01:04.01    \nframe=  225 fps=3.5 q=31.0 size=    4864KiB time=00:00:04.50 bitrate=8854.6kbits/s speed=0.0697x elapsed=0:01:04.58    \nframe=  226 fps=3.5 q=31.0 size=    4864KiB time=00:00:04.52 bitrate=8815.5kbits/s speed=0.0693x elapsed=0:01:05.18    \nframe=  226 fps=3.4 q=31.0 size=    4864KiB time=00:00:04.52 bitrate=8815.5kbits/s speed=0.0688x elapsed=0:01:05.72    \nframe=  226 fps=3.4 q=31.0 size=    4864KiB time=00:00:04.52 bitrate=8815.5kbits/s speed=0.0682x elapsed=0:01:06.28    \nframe=  226 fps=3.4 q=31.0 size=    4864KiB time=00:00:04.52 bitrate=8815.5kbits/s speed=0.0676x elapsed=0:01:06.83    \nframe=  226 fps=3.4 q=31.0 size=    4864KiB time=00:00:04.52 bitrate=8815.5kbits/s speed=0.067x elapsed=0:01:07.42    \nframe=  226 fps=3.3 q=31.0 size=    4864KiB time=00:00:04.52 bitrate=8815.5kbits/s speed=0.0665x elapsed=0:01:07.99    \nframe=  226 fps=3.3 q=31.0 size=    4864KiB time=00:00:04.52 bitrate=8815.5kbits/s speed=0.066x elapsed=0:01:08.51    \nframe=  226 fps=3.3 q=31.0 size=    4864KiB time=00:00:04.52 bitrate=8815.5kbits/s speed=0.0654x elapsed=0:01:09.10    \nframe=  226 fps=3.2 q=31.0 size=    4864KiB time=00:00:04.52 bitrate=8815.5kbits/s speed=0.0649x elapsed=0:01:09.63    \nframe=  226 fps=3.2 q=31.0 size=    4864KiB time=00:00:04.52 bitrate=8815.5kbits/s speed=0.0644x elapsed=0:01:10.16    \nframe=  226 fps=3.2 q=31.0 size=    4864KiB time=00:00:04.52 bitrate=8815.5kbits/s speed=0.0639x elapsed=0:01:10.76    \nframe=  226 fps=3.2 q=31.0 size=    4864KiB time=00:00:04.52 bitrate=8815.5kbits/s speed=0.0634x elapsed=0:01:11.31    \nframe=  226 fps=3.1 q=31.0 size=    4864KiB time=00:00:04.52 bitrate=8815.5kbits/s speed=0.0629x elapsed=0:01:11.88    \n[out#0/webm @ 0000021edf22f040] video:9573KiB audio:0KiB subtitle:0KiB other streams:0KiB global headers:0KiB muxing overhead: 0.026116%\nframe=  250 fps=3.5 q=28.0 Lsize=    9575KiB time=00:00:05.00 bitrate=15687.8kbits/s speed=0.0692x elapsed=0:01:12.29    \n",
  "seconds": 72.78825497627258,
  "probe_out": {}
}